<svg width="1440" height="479" viewBox="0 0 1440 479" xmlns="http://www.w3.org/2000/svg"><title>Page 1 Copy</title><path d="M-300 212.494v-484.389c0-52.56 42.633-95.17 95.222-95.17h360.303c52.593 0 95.222 42.61 95.222 95.17V429.83c0 52.56-42.63 95.171-95.222 95.171H16.936c-52.589 0-95.222-42.61-95.222-95.171 0-52.566 42.633-95.176 95.222-95.176h570.842c52.589 0 95.222-42.61 95.222-95.171V-404M560 490h833.68c58.755 0 106.385-34.982 106.385-78.134V394.82c0-43.156-47.63-78.138-106.384-78.138h-147.004c-58.76 0-106.39-34.982-106.39-78.133v-28.414c0-43.152 47.63-78.134 106.39-78.134H2444" stroke="#FFF" stroke-width="25" fill="none" opacity=".12" stroke-linecap="round"/></svg>