<?xml version="1.0" encoding="UTF-8"?>
<svg width="1376px" height="400px" viewBox="0 0 1376 400" version="1.1" xmlns="http://www.w3.org/2000/svg" xmlns:xlink="http://www.w3.org/1999/xlink">
    <!-- Generator: Sketch 49.1 (51147) - http://www.bohemiancoding.com/sketch -->
    <title>Page 1 Copy</title>
    <desc>Created with Sketch.</desc>
    <defs></defs>
    <g id="Page-1" stroke="none" stroke-width="1" fill="none" fill-rule="evenodd" opacity="0.119999997" stroke-linecap="round">
        <g id="Desktop" transform="translate(-64.000000, -2726.000000)" stroke="#FFFFFF" stroke-width="25">
            <g id="Talk-to-Us" transform="translate(0.000000, 2726.000000)">
                <g id="Page-1-+-Page-1-Copy-Mask">
                    <g id="Page-1-Copy" transform="translate(1149.500000, 258.500000) scale(1, -1) translate(-1149.500000, -258.500000) translate(-145.000000, -472.000000)">
                        <path d="M0,844.506225 L0,1328.8945 C0,1381.45544 42.6330932,1424.06586 95.2220092,1424.06586 L455.52473,1424.06586 C508.11791,1424.06586 550.746739,1381.45544 550.746739,1328.8945 L550.746739,627.171362 C550.746739,574.610417 508.11791,532 455.52473,532 L316.936265,532 C264.347349,532 221.714256,574.610417 221.714256,627.171362 C221.714256,679.736569 264.347349,722.346986 316.936265,722.346986 L887.777991,722.346986 C940.366907,722.346986 983,764.957404 983,817.518349 L983,1461" id="Stroke-1"></path>
                        <path d="M705,499 L1538.68075,499 C1597.4348,499 1645.06474,533.981714 1645.06474,577.1335 L1645.06474,594.181119 C1645.06474,637.337167 1597.4348,672.318881 1538.68075,672.318881 L1391.67667,672.318881 C1332.91683,672.318881 1285.28688,707.300595 1285.28688,750.452381 L1285.28688,778.8665 C1285.28688,822.018286 1332.91683,857 1391.67667,857 L2589,857" id="Stroke-3"></path>
                    </g>
                </g>
            </g>
        </g>
    </g>
</svg>