<?xml version="1.0" encoding="UTF-8"?>
<svg width="268px" height="186px" viewBox="0 0 268 186" version="1.1" xmlns="http://www.w3.org/2000/svg" xmlns:xlink="http://www.w3.org/1999/xlink">
    <!-- Generator: Sketch 49.1 (51147) - http://www.bohemiancoding.com/sketch -->
    <title>noun_995902</title>
    <desc>Created with Sketch.</desc>
    <defs></defs>
    <g id="Page-1" stroke="none" stroke-width="1" fill="none" fill-rule="evenodd">
        <g id="Desktop" transform="translate(-848.000000, -2168.000000)" fill-rule="nonzero">
            <g id="Group-17" transform="translate(162.000000, 2056.000000)">
                <g id="Group-11" transform="translate(613.000000, 0.000000)">
                    <g id="noun_995902" transform="translate(73.000000, 112.000000)">
                        <path d="M230.892308,70.9169231 L163.686154,61.8461538 L134,0.824615385 L104.313846,61.8461538 L37.1076923,70.9169231 L86.1723077,117.92 L74.2153846,185.126154 L134,152.966154 L193.784615,185.126154 L181.827692,118.332308 L230.892308,70.9169231 Z M185.950769,173.993846 L134,146.369231 L82.0492308,173.993846 L92.3569231,115.858462 L49.8892308,75.04 L108.024615,66.7938462 L133.587692,14.0184615 L159.150769,66.7938462 L217.286154,75.04 L174.818462,115.858462 L185.950769,173.993846 Z" id="Shape" fill="#0373F9"></path>
                        <polygon id="Shape" fill="#02002F" points="268 57.7230769 225.12 51.9507692 206.566154 13.1938462 186.775385 53.1876923 192.135385 55.6615385 206.566154 26.8 221.409231 57.3107692 254.806154 61.8461538 230.48 85.3476923 236.252308 119.156923 207.803077 103.901538 204.916923 108.849231 244.498462 130.289231 237.076923 87.8215385"></polygon>
                        <polygon id="Shape" fill="#02002F" points="31.7476923 119.156923 37.52 85.3476923 13.1938462 61.8461538 46.5907692 57.3107692 61.4338462 26.8 75.8646154 55.6615385 81.2246154 53.1876923 61.4338462 13.1938462 42.88 51.9507692 0 57.7230769 30.9230769 87.8215385 23.5015385 130.289231 63.0830769 108.849231 60.1969231 103.901538"></polygon>
                        <polygon id="Shape" fill="#0373F9" points="126.990769 111.323077 119.981538 104.313846 115.858462 108.436923 126.990769 119.569231 152.141538 94.4184615 148.018462 90.2953846"></polygon>
                        <path d="M134,70.5046154 C115.446154,70.5046154 100.603077,85.3476923 100.603077,103.901538 C100.603077,122.455385 115.446154,137.298462 134,137.298462 C152.553846,137.298462 167.396923,122.455385 167.396923,103.901538 C167.396923,85.3476923 152.553846,70.5046154 134,70.5046154 Z M134,131.526154 C118.744615,131.526154 106.375385,119.156923 106.375385,103.901538 C106.375385,88.6461538 118.744615,76.2769231 134,76.2769231 C149.255385,76.2769231 161.624615,88.6461538 161.624615,103.901538 C161.624615,119.156923 149.255385,131.526154 134,131.526154 Z" id="Shape" fill="#02002F"></path>
                    </g>
                </g>
            </g>
        </g>
    </g>
</svg>