<svg width="1909" height="383" viewBox="0 0 1909 383" xmlns="http://www.w3.org/2000/svg"><title>Stroke 3</title><path d="M12.5 25C5.596 25 0 19.404 0 12.5S5.596 0 12.5 0h833.68c64.97 0 118.885 39.597 118.885 90.633v17.048c0 51.04-53.913 90.638-118.884 90.638H699.177c-52.543 0-93.89 30.366-93.89 65.633v28.414c0 35.268 41.347 65.634 93.89 65.634H1896.5c6.904 0 12.5 5.596 12.5 12.5s-5.596 12.5-12.5 12.5H699.177c-64.975 0-118.89-39.596-118.89-90.634v-28.414c0-51.037 53.915-90.633 118.89-90.633H846.18c52.539 0 93.884-30.367 93.884-65.638V90.634C940.065 55.366 898.719 25 846.18 25H12.5z" fill="#F3F3F3" opacity=".23"/></svg>