<svg width="336" height="407" viewBox="0 0 336 407" xmlns="http://www.w3.org/2000/svg"><title>Stroke 1</title><path d="M66.452 91.76H45.9C20.551 91.76 0 71.218 0 45.878 0 20.54 20.551 0 45.9 0h59.053c25.35 0 45.9 20.54 45.9 45.879v35.228h138.283c25.35 0 45.9 20.54 45.9 45.879v274.188a5.326 5.326 0 0 1-10.652 0V126.986c0-19.454-15.78-35.227-35.248-35.227H150.853v253.125c0 25.339-20.55 45.878-45.9 45.878V380.11c1.25 0 2.484-.065 3.7-.192 1.216.127 2.45.192 3.7.192v10.652c-25.35 0-45.9-20.54-45.9-45.878V91.759zm45.9 299.002h-7.399V380.11h7.4v10.652zM77.106 91.76v253.125c0 18.205 13.82 33.186 31.548 35.034 17.729-1.848 31.548-16.829 31.548-35.034V91.759H77.105zM140.2 81.107V45.879c0-19.455-15.78-35.226-35.248-35.226H45.9c-19.467 0-35.247 15.772-35.247 35.226 0 19.455 15.78 35.228 35.247 35.228h20.552V45.879a5.326 5.326 0 0 1 10.653 0v35.228H140.2z" fill="#FFF"/></svg>