<svg width="347" height="420" viewBox="0 0 347 420" xmlns="http://www.w3.org/2000/svg"><title>Stroke 1</title><path d="M68.997 94.694H47.788C21.628 94.694.42 73.496.42 47.346.42 21.197 21.628 0 47.788 0h60.941c26.161 0 47.369 21.197 47.369 47.346v36.355h142.705c26.16 0 47.368 21.197 47.368 47.346v282.956a5.497 5.497 0 0 1-10.993 0V131.047c0-20.076-16.285-36.353-36.375-36.353H156.098v261.219c0 26.15-21.208 47.346-47.369 47.346v-10.993c1.29 0 2.564-.067 3.819-.198a37.02 37.02 0 0 0 3.818.198v10.993c-26.16 0-47.369-21.197-47.369-47.346V94.694zm47.369 308.565h-7.637v-10.993h7.637v10.993zM79.99 355.913c0 18.788 14.262 34.248 32.558 36.155 18.296-1.907 32.557-17.367 32.557-36.155V94.694H79.99v261.219zm65.115-272.212V47.346c0-20.077-16.285-36.353-36.376-36.353H47.79c-20.09 0-36.376 16.277-36.376 36.353 0 20.078 16.285 36.355 36.375 36.355h21.21V47.346a5.497 5.497 0 0 1 10.992 0v36.355h65.115z" fill="#FFF"/></svg>