<svg width="1008" height="954" viewBox="0 0 1008 954" xmlns="http://www.w3.org/2000/svg"><title>Stroke 1</title><path d="M575.747 190.347h324.531c59.491 0 107.722 48.205 107.722 107.671V941.5c0 6.904-5.596 12.5-12.5 12.5s-12.5-5.596-12.5-12.5V298.018c0-45.656-37.035-82.671-82.722-82.671H575.747v594.047c0 59.468-48.228 107.672-107.722 107.672H107.722C48.231 917.066 0 868.86 0 809.394V325.006c0-6.903 5.596-12.5 12.5-12.5s12.5 5.597 12.5 12.5v484.388c0 45.656 37.035 82.672 82.722 82.672h360.303c45.69 0 82.722-37.014 82.722-82.672V215.347h-221.31c-59.492 0-107.723-48.206-107.723-107.676C221.714 48.205 269.945 0 329.436 0h138.589c59.494 0 107.722 48.204 107.722 107.671v82.676zm-25 0v-82.676c0-45.657-37.033-82.671-82.722-82.671H329.436c-45.687 0-82.722 37.015-82.722 82.671 0 45.66 37.035 82.676 82.722 82.676h221.31z" fill="#F3F3F3" opacity=".23"/></svg>