<svg width="340" height="412" viewBox="0 0 340 412" xmlns="http://www.w3.org/2000/svg"><title>Stroke 1</title><path d="M67.244 92.888H46.45C20.796 92.888 0 72.094 0 46.443 0 20.793 20.797 0 46.45 0h59.756c25.654 0 46.45 20.793 46.45 46.443v35.662h139.929c25.653 0 46.45 20.793 46.45 46.443v277.56a5.392 5.392 0 1 1-10.784 0v-277.56c0-19.694-15.968-35.66-35.666-35.66h-139.93v256.238c0 25.65-20.795 46.443-46.449 46.443v-10.784c1.265 0 2.514-.066 3.744-.194 1.23.128 2.48.194 3.744.194v10.784c-25.653 0-46.45-20.794-46.45-46.443V92.888zm46.45 302.68h-7.488v-10.783h7.488v10.784zM78.028 92.889v256.238c0 18.43 13.984 33.594 31.922 35.465 17.939-1.87 31.922-17.035 31.922-35.465V92.888H78.028zm63.844-10.783V46.443c0-19.694-15.967-35.66-35.666-35.66H46.45c-19.698 0-35.666 15.966-35.666 35.66 0 19.695 15.968 35.662 35.666 35.662h20.794V46.443a5.392 5.392 0 0 1 10.784 0v35.662h63.844z" fill="#F3F3F3"/></svg>