<?xml version="1.0" encoding="UTF-8"?>
<svg width="225px" height="250px" viewBox="0 0 225 250" version="1.1" xmlns="http://www.w3.org/2000/svg" xmlns:xlink="http://www.w3.org/1999/xlink">
    <!-- Generator: Sketch 49.1 (51147) - http://www.bohemiancoding.com/sketch -->
    <title>noun_986300</title>
    <desc>Created with Sketch.</desc>
    <defs></defs>
    <g id="Page-1" stroke="none" stroke-width="1" fill="none" fill-rule="evenodd">
        <g id="Desktop" transform="translate(-343.000000, -1626.000000)" fill-rule="nonzero">
            <g id="Group-16" transform="translate(248.000000, 1543.000000)">
                <g id="noun_986300" transform="translate(95.000000, 83.000000)">
                    <path d="M172.130964,151.193347 C172.51568,150.423915 173.285112,149.269768 174.054543,148.11562 C180.594714,136.574143 183.672441,123.109087 183.287725,109.64403 C181.364145,73.8654521 153.279885,45.0117599 117.501307,42.7034645 C75.5672739,39.6257373 41.3275592,72.7113044 41.3275592,113.106474 C41.3275592,121.185507 42.4817069,128.879825 45.559434,136.958859 L51.7148884,149.654484 C52.4843202,151.193347 53.6384679,152.732211 54.4078996,154.271074 L54.7926155,154.65579 C64.410513,171.968006 71.720115,190.819085 75.9519898,210.824311 L61.3327858,210.824311 L61.3327858,216.59505 L77.4908534,216.59505 C77.4908534,216.979766 77.8755693,217.364481 77.8755693,218.133913 C78.2602852,220.057493 78.6450011,222.365788 79.029717,224.674083 L69.7965355,224.674083 L69.7965355,230.444822 L79.7991488,230.444822 C80.1838647,233.522549 80.5685806,236.984992 80.9532965,239.678003 L80.9532965,240.447435 C82.876876,245.833458 88.2628985,249.680617 94.4183529,249.680617 L131.351079,249.680617 C137.891249,249.680617 143.661988,245.064026 145.200851,238.13914 C145.200851,236.984992 145.585567,235.446129 145.585567,233.907265 C145.585567,232.753117 145.970283,231.214254 145.970283,230.060106 L155.58818,230.060106 L155.58818,224.289368 L146.739715,224.289368 C147.124431,221.596356 147.509147,218.903345 148.278578,216.59505 L164.05193,216.59505 L164.05193,210.824311 L149.432726,210.824311 C153.664601,189.664937 161.358919,168.890279 172.130964,151.193347 Z M59.4092063,151.193347 L59.0244904,150.808631 C58.2550586,149.269768 57.4856268,147.730904 56.716195,146.576757 L50.5607407,134.650564 C48.2524453,127.725678 47.0982976,120.416076 47.0982976,113.106474 C47.0982976,75.7890316 78.6450011,45.3964758 116.731875,48.089487 C149.432726,50.3977824 175.593407,76.9431793 177.132271,109.64403 C177.901702,121.954939 174.823975,134.265848 169.053237,144.653177 L168.668521,145.037893 C167.899089,145.807325 167.514373,146.961472 167.129657,147.730904 C155.972896,166.581983 147.893862,187.741357 142.892556,210.439595 L81.7227283,210.439595 C77.1061375,189.664937 69.4118196,169.65971 59.4092063,151.193347 Z M139.045397,233.522549 C139.045397,235.061413 138.660681,236.21556 138.660681,237.369708 C137.891249,241.216867 134.428806,243.909878 130.581647,243.909878 L93.6489211,243.909878 C90.186478,243.909878 87.1087508,241.986299 85.9546032,238.908572 C85.5698873,236.21556 85.1851714,233.522549 85.1851714,230.444822 L139.814829,230.444822 C139.430113,231.59897 139.430113,232.368401 139.045397,233.522549 Z M140.199545,223.519936 C140.199545,223.904652 140.199545,224.289368 140.199545,224.289368 L84.0310237,224.289368 C83.6463078,221.596356 83.2615919,218.903345 82.876876,216.979766 C82.876876,216.979766 82.876876,216.59505 82.876876,216.59505 L141.738408,216.59505 C140.968976,218.903345 140.58426,221.21164 140.199545,223.519936 Z" id="Shape" fill="#02002F"></path>
                    <path d="M152.125737,155.809938 C164.05193,144.653177 170.976816,129.264541 170.976816,112.721758 C170.976816,96.56369 164.05193,80.7903382 152.125737,69.6335772 C141.353692,59.6309639 127.50392,54.2449414 112.5,54.2449414 C112.5,54.2449414 112.5,54.2449414 112.5,54.2449414 C112.5,54.2449414 112.5,54.2449414 112.5,54.2449414 C97.8807959,54.2449414 83.6463078,59.6309639 72.8742627,69.6335772 C60.9480699,80.7903382 54.0231838,96.1789741 54.0231838,112.721758 C54.0231838,128.879825 60.9480699,144.653177 72.8742627,155.809938 C83.6463078,165.812551 97.8807959,171.198574 112.5,171.198574 C127.119204,171.198574 141.353692,165.812551 152.125737,155.809938 Z M115.577727,165.04312 L115.577727,141.960166 C121.348466,142.344882 127.119204,143.499029 132.505227,145.807325 C127.888636,156.194654 122.117897,163.11954 115.577727,165.04312 Z M137.506533,148.11562 C140.58426,149.654484 143.277272,151.578063 145.585567,153.501643 C140.58426,157.733518 134.813522,160.811245 128.658068,162.734824 C132.120511,158.887665 135.198238,153.886359 137.506533,148.11562 Z M115.577727,136.189427 L115.577727,115.414769 L137.891249,115.414769 C137.506533,124.263235 136.352386,132.726984 134.04409,140.036586 C128.273352,137.728291 121.733182,136.574143 115.577727,136.189427 Z M115.577727,109.64403 L115.577727,88.8693721 C122.117897,88.4846562 128.273352,87.3305085 134.04409,84.6374972 C136.352386,91.9470992 137.506533,100.410849 137.891249,109.259315 L115.577727,109.259315 L115.577727,109.64403 Z M115.577727,83.4833495 L115.577727,60.4003957 C122.117897,61.9392593 128.273352,69.2488613 132.505227,79.6361905 C126.734488,81.9444859 121.348466,83.0986336 115.577727,83.4833495 Z M128.658068,62.7086911 C134.813522,64.6322706 140.58426,67.7099978 145.585567,71.9418726 C142.892556,73.8654521 140.199545,75.7890316 137.506533,77.3278952 C135.198238,71.5571567 132.120511,66.5558501 128.658068,62.7086911 Z M109.806989,60.4003957 L109.806989,83.4833495 C104.03625,83.0986336 98.2655118,81.9444859 92.8794893,79.6361905 C97.1113641,69.2488613 102.882103,61.9392593 109.806989,60.4003957 Z M87.4934667,77.3278952 C84.8004555,75.7890316 82.1074442,73.8654521 79.4144329,71.9418726 C79.4144329,71.9418726 79.4144329,71.9418726 79.4144329,71.9418726 C84.4157396,67.7099978 90.186478,64.6322706 96.3419324,62.7086911 C92.8794893,66.5558501 89.8017621,71.5571567 87.4934667,77.3278952 Z M109.806989,89.254088 L109.806989,110.028746 L87.4934667,110.028746 C87.8781826,101.180281 89.0323303,92.716531 91.3406257,85.406929 C96.7266482,87.3305085 103.266818,88.8693721 109.806989,89.254088 Z M109.806989,115.414769 L109.806989,136.189427 C103.266818,136.574143 97.1113641,137.728291 91.3406257,140.421302 C89.0323303,133.1117 87.8781826,124.64795 87.4934667,115.799485 L109.806989,115.799485 L109.806989,115.414769 Z M109.806989,141.960166 L109.806989,165.04312 C103.266818,163.504256 97.1113641,156.194654 92.8794893,145.807325 C98.2655118,143.499029 103.651534,142.344882 109.806989,141.960166 Z M96.3419324,162.734824 C90.186478,160.811245 84.4157396,157.733518 79.4144329,153.501643 C82.1074442,151.578063 84.8004555,149.654484 87.4934667,148.11562 C89.8017621,153.886359 92.8794893,158.887665 96.3419324,162.734824 Z M149.817442,149.654484 C146.739715,146.961472 142.892556,144.653177 139.430113,142.729598 C141.738408,134.650564 143.277272,125.417382 143.661988,115.799485 L165.206078,115.799485 C164.436646,128.495109 159.050623,140.421302 149.817442,149.654484 Z M164.821362,109.64403 L143.277272,109.64403 C142.892556,99.6414172 141.353692,90.4082356 139.045397,82.7139177 C142.892556,80.7903382 146.354999,78.4820429 149.432726,75.7890316 C159.050623,84.6374972 164.436646,96.9484059 164.821362,109.64403 Z M145.970283,72.3265885 C146.739715,72.7113044 147.124431,73.4807362 147.893862,73.8654521 C147.509147,73.4807362 146.739715,72.7113044 145.970283,72.3265885 Z M77.4908534,73.4807362 C77.1061375,73.8654521 76.7214216,74.250168 76.3367057,74.6348839 C76.7214216,74.250168 76.7214216,74.250168 77.1061375,73.8654521 C77.1061375,73.8654521 77.1061375,73.4807362 77.4908534,73.4807362 Z M75.1825581,75.7890316 C78.2602852,78.4820429 82.1074442,80.7903382 85.5698873,82.7139177 C83.2615919,90.7929515 81.7227283,100.026133 81.3380124,109.64403 L59.7939222,109.64403 C60.563354,96.9484059 65.9493765,84.6374972 75.1825581,75.7890316 Z M60.1786381,115.414769 L81.7227283,115.414769 C82.1074442,125.417382 83.6463078,134.650564 85.9546032,142.344882 C82.1074442,144.268461 78.6450011,146.576757 75.5672739,149.269768 C65.9493765,140.421302 60.563354,128.495109 60.1786381,115.414769 Z M76.3367057,150.808631 C76.7214216,151.193347 77.1061375,151.193347 77.4908534,151.578063 C77.8755693,151.962779 78.2602852,152.347495 78.6450011,152.732211 C78.2602852,152.347495 77.4908534,151.962779 77.1061375,151.193347 C76.7214216,151.193347 76.3367057,151.193347 76.3367057,150.808631 Z" id="Shape" fill="#0373F9"></path>
                    <rect id="Rectangle-path" fill="#02002F" transform="translate(79.212630, 30.141394) rotate(67.499572) translate(-79.212630, -30.141394) " x="71.518118" y="27.255952" width="15.3890244" height="5.77088415"></rect>
                    <rect id="Rectangle-path" fill="#02002F" transform="translate(30.605546, 77.862708) rotate(22.500428) translate(-30.605546, -77.862708) " x="22.9110342" y="74.9772659" width="15.3890244" height="5.77088415"></rect>
                    <rect id="Rectangle-path" fill="#02002F" transform="translate(30.163700, 145.994816) rotate(-22.500428) translate(-30.163700, -145.994816) " x="22.469188" y="143.109374" width="15.3890244" height="5.77088415"></rect>
                    <rect id="Rectangle-path" fill="#02002F" transform="translate(194.454662, 147.613701) rotate(-157.499572) translate(-194.454662, -147.613701) " x="186.760149" y="144.728258" width="15.3890244" height="5.77088415"></rect>
                    <rect id="Rectangle-path" fill="#02002F" transform="translate(194.854728, 79.221832) rotate(157.499572) translate(-194.854728, -79.221832) " x="187.160216" y="76.3363902" width="15.3890244" height="5.77088415"></rect>
                    <rect id="Rectangle-path" fill="#02002F" transform="translate(147.333120, 30.841635) rotate(22.495135) translate(-147.333120, -30.841635) " x="144.447788" y="23.1474169" width="5.77066334" height="15.3884356"></rect>
                    <rect id="Rectangle-path" fill="#0373F9" x="110.191705" y="0.384715896" width="5.77073845" height="31.1619876"></rect>
                    <rect id="Rectangle-path" fill="#0373F9" transform="translate(44.740566, 43.650327) rotate(45.000000) translate(-44.740566, -43.650327) " x="29.1597219" y="40.7649857" width="31.1616888" height="5.7706831"></rect>
                    <rect id="Rectangle-path" fill="#0373F9" x="0.162958262" y="108.874599" width="31.1619876" height="5.77073845"></rect>
                    <rect id="Rectangle-path" fill="#0373F9" transform="translate(43.637509, 180.274945) rotate(-135.000000) translate(-43.637509, -180.274945) " x="40.7521673" y="164.694101" width="5.7706831" height="31.1616888"></rect>
                    <rect id="Rectangle-path" fill="#0373F9" transform="translate(180.172296, 181.537698) rotate(-135.000000) translate(-180.172296, -181.537698) " x="164.591451" y="178.652357" width="31.1616888" height="5.7706831"></rect>
                    <rect id="Rectangle-path" fill="#0373F9" x="193.675054" y="110.413462" width="31.1619876" height="5.77073845"></rect>
                    <rect id="Rectangle-path" fill="#0373F9" transform="translate(181.245922, 44.708604) rotate(45.000000) translate(-181.245922, -44.708604) " x="178.360581" y="29.1277594" width="5.7706831" height="31.1616888"></rect>
                </g>
            </g>
        </g>
    </g>
</svg>