<svg width="241" height="209" viewBox="0 0 241 209" xmlns="http://www.w3.org/2000/svg"><title>noun_986280</title><g fill="none"><path d="M180.104 32.545c-15.358 0-27.79 12.433-27.79 27.79 0 15.359 12.432 27.792 27.79 27.792 15.359 0 27.792-12.433 27.792-27.791.365-14.993-12.433-27.791-27.792-27.791zm0 50.462c-12.432 0-22.305-10.238-22.305-22.306 0-12.432 10.238-22.305 22.305-22.305 12.433 0 22.306 10.238 22.306 22.305.366 12.433-9.873 22.306-22.306 22.306z" fill="#0373F9"/><path d="M228.007 72.403l12.433-2.194V50.463l-12.433-2.194c-1.097-4.388-2.925-8.776-5.485-13.165l6.948-10.238-14.26-13.896-10.239 7.314c-4.022-2.56-8.41-4.023-13.164-5.12L189.612.731h-19.746l-2.194 12.433c-4.388 1.097-8.776 2.926-12.799 5.12l-10.604-6.948-4.388 4.388C116.478 5.85 89.784 5.119 66.015 13.896c-6.216 2.194-12.433 5.485-18.284 9.141l2.926 4.754c5.485-3.291 11.336-6.216 17.186-8.41 21.94-8.045 46.44-7.68 68.015.73l-5.485 5.486 7.314 10.239c-2.194 4.022-4.023 8.41-5.12 13.164l-12.433 2.194V70.94l12.433 2.194c1.097 4.754 2.926 8.776 5.485 12.799l-6.948 10.239L145 110.067l10.239-7.313c4.022 2.56 8.41 4.022 13.164 5.12l2.194 12.432h19.746l2.194-12.433c1.097-.366 1.829-.366 2.926-.731 0 29.62-13.896 58.142-37.664 76.06-41.687 31.447-100.926 23.037-132.374-18.65C-1.269 129.448.194 81.18 27.985 47.537l2.56 13.896 5.485-1.097-4.023-22.672-22.671 4.023 1.097 5.85 12.433-2.194c-28.523 35.47-29.62 85.933-1.829 122.866 19.747 25.963 49.732 39.858 80.082 39.858a99.486 99.486 0 0 0 59.97-20.112c25.963-19.38 40.59-50.097 39.859-82.642 1.462-.73 3.29-1.462 4.753-2.56l10.24 6.948 13.895-13.895-7.314-10.239c2.56-4.022 4.388-8.41 5.485-13.164zm-5.119 22.672l-7.313 7.679-9.508-6.582-1.463 1.097c-4.388 2.925-9.141 5.12-14.626 6.216l-1.829.366-2.194 11.336h-10.604l-2.194-11.336-1.829-.366c-5.119-1.097-10.238-2.925-14.627-5.85l-1.462-1.098-9.508 6.582-7.679-7.313 6.582-9.507-1.097-1.463c-2.925-4.388-5.12-9.142-6.216-14.627l-.366-1.828-11.336-2.194V55.582l11.336-2.194.366-1.828c1.097-5.12 2.925-10.24 5.85-14.627l1.098-1.463-6.582-9.507 7.313-7.68 9.507 6.583 1.463-1.097c4.388-2.926 9.508-5.12 14.627-6.217l1.828-.365L174.62 5.85h10.605l2.194 11.336 1.828.365c5.12 1.097 10.24 2.926 14.627 5.851l1.463 1.097 9.507-6.582 7.68 7.313-6.583 9.508 1.097 1.462c2.926 4.389 5.12 9.508 6.217 14.627l.365 1.829 11.336 2.194v10.604L223.62 67.65l-.73 1.829c-1.098 5.119-2.926 9.873-5.852 14.626l-1.097 1.463 6.948 9.508z" fill="#02002F"/><path d="M90.515 107.873c0 5.485 4.754 10.239 10.239 10.239 1.828 0 3.656-.366 5.12-1.463l23.768 23.769 4.022-4.022-23.768-23.77c.73-1.462 1.462-3.29 1.462-5.119 0-4.753-3.29-8.776-7.313-9.873V51.56H98.56v46.074c-4.754 1.829-8.045 5.485-8.045 10.24zm10.239-4.754c2.56 0 4.753 2.194 4.753 4.754 0 1.463-.365 2.56-1.462 3.291-.732.732-2.194 1.463-3.291 1.463-2.56 0-4.754-2.194-4.754-4.754 0-2.56 2.194-4.754 4.754-4.754z" fill="#02002F"/><path fill="#0373F9" d="M97.828 21.209h5.485v19.746h-5.485zm22.599 1.973l5.299 1.419-2.555 9.536-5.298-1.419zm55.462 101.784l9.537 2.555-1.418 5.298-9.538-2.554zm-1.254 28.616l-8.551-4.935 2.741-4.75 8.552 4.934zm-32.72 30.81l-4.935-8.552 4.75-2.741 4.936 8.552zm-15.842 6.463l-5.298 1.42-2.557-9.536 5.298-1.42zm-42.396-8.015l-2.555 9.537-5.298-1.42 2.555-9.536zm-18.914-7.044l-4.936 8.55-4.75-2.742 4.936-8.55zM32.825 144.1l2.743 4.75-8.55 4.937-2.743-4.75zm-7.003-18.691l1.42 5.297-9.536 2.558-1.421-5.297zM16.28 88.352l1.422-5.298 9.537 2.558-1.421 5.298zm43.632-45.837l-4.937-8.55 4.75-2.743 4.937 8.55zm18.104-8.332l-2.555-9.536 5.298-1.42 2.555 9.537zm72.254 119.003l13.962 13.962-3.879 3.879-13.962-13.963zm-52.076 21.971h5.485v19.746h-5.485zm-56.662-3.79l-3.879-3.879 13.963-13.962 3.878 3.878zM14.09 105.313h19.746v5.485H14.09z"/></g></svg>